<svg width="427" height="110" viewBox="0 0 427 110" fill="none" xmlns="http://www.w3.org/2000/svg">
<path d="M48.528 108V105.408H55.152L38.88 72L36.144 72.72V105.408H42.768V108H1.44V105.408H9.36V2.59199H0.864V-8.58307e-06H36.144V69.84L38.448 68.976L70.848 42.048H57.312V39.456H85.68V42.048H75.6L58.464 56.592L83.376 105.408H88.56V108H48.528ZM138.833 43.488C135.281 43.488 132.161 45.792 129.473 50.4C126.785 55.008 125.441 60.48 125.441 66.816V105.408H135.665V108H90.7369V105.408H98.6569V42.048H90.7369V39.456H125.441V53.28C126.689 48.384 129.089 44.64 132.641 42.048C136.193 39.36 140.225 38.016 144.737 38.016C149.249 38.016 152.897 39.312 155.681 41.904C158.561 44.4 160.001 48 160.001 52.704C160.001 57.312 158.945 60.864 156.833 63.36C154.721 65.856 151.457 67.104 147.041 67.104C142.721 67.104 139.505 65.664 137.393 62.784C135.377 59.904 135.137 55.92 136.673 50.832H141.857C144.257 45.936 143.249 43.488 138.833 43.488ZM207.843 79.632V67.392C207.843 58.08 207.315 51.312 206.259 47.088C205.299 42.768 202.995 40.608 199.347 40.608C197.235 40.608 195.507 41.232 194.163 42.48C192.915 43.632 192.003 45.6 191.427 48.384C190.563 52.704 190.131 59.28 190.131 68.112V79.344C190.131 89.808 190.419 96.096 190.995 98.208C191.667 100.32 192.339 102.048 193.011 103.392C194.067 105.696 196.131 106.848 199.203 106.848C202.947 106.848 205.395 104.688 206.547 100.368C207.411 97.296 207.843 90.384 207.843 79.632ZM198.915 109.44C186.915 109.44 177.843 106.368 171.699 100.224C165.555 94.08 162.483 85.296 162.483 73.872C162.483 62.352 165.747 53.52 172.275 47.376C178.899 41.136 188.163 38.016 200.067 38.016C211.971 38.016 220.851 40.896 226.707 46.656C232.563 52.32 235.491 61.008 235.491 72.72C235.491 97.2 223.299 109.44 198.915 109.44ZM284.407 42.048V39.456H321.559V42.048H315.655L328.615 90.576L341.431 42.048H331.495V39.456H350.935V42.048H344.887L327.607 108H307.879L295.351 63.792L281.815 108H262.519L241.207 42.048H234.727V39.456H278.359V42.048H269.719L282.967 91.008L293.335 57.312L289.735 42.048H284.407ZM383.625 74.16H387.801V63.072C387.801 53.952 387.273 47.856 386.217 44.784C385.257 41.616 383.337 40.032 380.457 40.032C378.729 40.032 377.145 40.512 375.705 41.472C374.361 42.336 373.689 43.584 373.689 45.216C373.689 46.752 373.977 48.336 374.553 49.968H378.153C378.921 51.984 379.305 54.432 379.305 57.312C379.305 60.096 378.105 62.544 375.705 64.656C373.305 66.672 370.281 67.68 366.633 67.68C358.377 67.68 354.249 63.696 354.249 55.728C354.249 43.92 364.281 38.016 384.345 38.016C395.769 38.016 403.641 39.984 407.961 43.92C412.377 47.76 414.585 54.864 414.585 65.232V94.464C414.585 99.456 415.977 101.952 418.761 101.952C422.025 101.952 423.945 97.008 424.521 87.12L426.681 87.264C426.297 95.712 424.713 101.52 421.929 104.688C419.145 107.856 414.585 109.44 408.249 109.44C396.729 109.44 390.105 105.888 388.377 98.784C387.129 102.432 385.257 105.12 382.761 106.848C380.265 108.576 376.617 109.44 371.817 109.44C357.609 109.44 350.505 103.632 350.505 92.016C350.505 85.2 353.193 80.544 358.569 78.048C364.041 75.456 372.393 74.16 383.625 74.16ZM377.865 91.872C377.865 96.864 378.105 100.08 378.585 101.52C379.161 102.96 380.169 103.68 381.609 103.68C383.145 103.68 384.537 102.48 385.785 100.08C387.129 97.584 387.801 94.176 387.801 89.856V76.464H386.793C380.841 76.464 377.865 80.832 377.865 89.568V91.872Z" fill="#4F2218"/>
</svg>
